<?xml version="1.0" encoding="UTF-8"?>
<svg version="1.1" xmlns="http://www.w3.org/2000/svg" width="512" height="512">
<path d="M0 0 C7.28347312 4.6537125 11.78592826 11.73225663 14 20 C14.33197586 23.8387066 14.37219896 27.67195552 14.4140625 31.5234375 C14.43342865 32.62475006 14.4527948 33.72606262 14.4727478 34.86074829 C14.53234928 38.36542099 14.57885162 41.87012688 14.625 45.375 C14.66319762 47.75652445 14.70225039 50.13803534 14.7421875 52.51953125 C14.83803488 58.34623354 14.92313901 64.17301799 15 70 C15.84498047 69.08283203 16.68996094 68.16566406 17.56054688 67.22070312 C28.24990573 55.68476697 39.33773174 44.5763102 50.5 33.5 C54.03422464 29.99255945 57.56496999 26.48166729 61.09375 22.96875 C62.28139954 21.79354797 62.28139954 21.79354797 63.49304199 20.59460449 C67.68936374 16.41671824 71.70955628 12.15838841 75.55030823 7.65022278 C81.23339526 1.18101335 88.22827719 -3.35958693 96.81640625 -4.3125 C105.58222034 -4.67074528 112.78771209 -2.70414945 119.8125 2.625 C125.1204943 7.54399236 128.37553869 14.83027932 129.23828125 21.97265625 C129.55430702 30.87127656 126.93925425 38.22432872 121 44.875 C119.34111996 46.59089556 117.67381171 48.29866672 116 50 C114.55428359 51.56479925 113.12361761 53.14263531 111.69213867 54.72045898 C106.6625699 60.25110763 101.46549706 65.58180274 96.14697266 70.83374023 C92.92868053 74.02606984 89.93184682 77.32509412 87 80.77734375 C82.2367174 86.07091367 77.0680844 91.00050622 72 96 C77.30487861 103.42683005 83.30906702 110.19655785 89.30957031 117.05957031 C91.8918107 120.02370182 94.44634447 123.01124576 97 126 C101.14825676 130.84944773 105.31702562 135.68047253 109.5 140.5 C111.12546581 142.3749004 112.75059855 144.2500886 114.37548828 146.12548828 C115.46451073 147.38210301 116.55403457 148.63828337 117.64404297 149.89404297 C136.5348682 171.67637867 136.5348682 171.67637867 136.3203125 187.29296875 C135.89386696 192.22829578 134.6095559 195.83018516 132 200 C131.46375 200.886875 130.9275 201.77375 130.375 202.6875 C122.89802583 209.96771169 115.28211375 212.39718546 105.09765625 212.2734375 C91.49476824 211.07267815 82.34519471 198.63025042 74 189 C71.74657544 186.27917035 69.52711903 183.53370508 67.3125 180.78125 C64.8002899 177.75980812 62.17599173 174.87558227 59.5 172 C55.24024514 167.42252861 51.25871391 162.68805636 47.33984375 157.8125 C44.23166816 154.07646256 40.95200465 150.51564324 37.62890625 146.97070312 C35.52799409 144.72016204 33.71409779 142.57114669 32 140 C24.68565642 143.14245872 18.22763881 148.67242187 15 156 C13.81938241 162.82002821 13.84653498 169.63521307 14.04614258 176.53759766 C14.35666376 187.7924267 12.66707778 194.88945815 4.92578125 203.2109375 C-2.04358479 209.68552096 -9.57689833 212.53645296 -19.06640625 212.3046875 C-28.46748985 211.32827669 -35.89481561 207.17175274 -42 200 C-46.51156743 192.90885215 -48.11929248 186.68449979 -48.14044189 178.31587219 C-48.14341302 177.65712024 -48.14638414 176.9983683 -48.1494453 176.31965417 C-48.15809328 174.11974666 -48.15963723 171.91989383 -48.16113281 169.7199707 C-48.1657638 168.13941838 -48.17078884 166.55886718 -48.17617798 164.97831726 C-48.18927812 160.68882292 -48.19574244 156.39934422 -48.20018864 152.109833 C-48.2031236 149.42705784 -48.20722924 146.74428692 -48.21169281 144.0615139 C-48.22536231 135.65949407 -48.23503128 127.25748397 -48.2388947 118.85545379 C-48.24337232 109.17208565 -48.26090873 99.48885888 -48.2898953 89.80553371 C-48.31154831 82.31064356 -48.32160093 74.81579308 -48.32293582 67.32087201 C-48.32398138 62.84926391 -48.32983591 58.3777888 -48.34775543 53.90621376 C-48.36429852 49.69628674 -48.36636154 45.4865918 -48.35761642 41.27664375 C-48.35684934 39.73761623 -48.3611451 38.19857591 -48.37107468 36.65958023 C-48.44581767 24.34586043 -47.55622312 14.39712957 -39 5 C-28.15878233 -5.84121767 -13.35260281 -6.79231928 0 0 Z " fill="#32D3DC" transform="translate(293,152)"/>
<path d="M0 0 C7.79367085 7.04427942 14.35791885 16.67301215 15.6875 27.2265625 C16.03397254 35.78010331 13.79448795 41.45401842 9.1875 48.5 C3.53035675 53.9111805 -3.19858978 56.9716839 -11.046875 57.37890625 C-20.19216531 56.93246456 -26.85280886 54.1714965 -33.6875 48.25 C-42.11934659 41.5672921 -42.11934659 41.5672921 -52.62109375 40 C-56.19739987 40.4326722 -58.56558818 41.4023379 -61.6875 43.25 C-63.11210282 46.25749484 -62.89372993 47.61544636 -61.875 50.75 C-56.0894255 57.36208515 -45.56628993 59.96974827 -37.5625 63.0625 C-15.28089522 71.86462489 9.1743592 82.49830995 20.3125 105.25 C27.6036491 122.40289564 26.97760464 140.13277783 20.09765625 157.27734375 C11.8973291 173.84438151 -3.81254967 185.58277549 -20.6875 192.25 C-46.14771285 200.78570606 -72.98860667 200.65598849 -97.30200195 188.5715332 C-111.88744965 181.01649431 -124.91082549 170.11018668 -130.40234375 154.17578125 C-132.92878116 144.97822807 -131.85982171 135.74423265 -127.1953125 127.44140625 C-122.8143306 121.07422789 -117.24484734 117.71076522 -109.6875 116.25 C-100.50847561 115.14688283 -92.26350463 116.81023533 -84.80859375 122.4140625 C-77.97734114 128.38047659 -77.97734114 128.38047659 -76.6875 132.25 C-74.97230253 133.27651373 -74.97230253 133.27651373 -72.6875 134.25 C-71.07875 135.24 -71.07875 135.24 -69.4375 136.25 C-61.9453119 140.48816573 -55.02940067 140.81649432 -46.6875 139.25 C-42.56235878 137.65784023 -41.14247006 136.93245508 -38.6875 133.25 C-38.10380557 129.83461856 -38.10380557 129.83461856 -38.6875 126.25 C-42.17984252 122.0657783 -46.15254422 119.63880498 -51 117.3125 C-51.7000415 116.96896484 -52.40008301 116.62542969 -53.12133789 116.27148438 C-57.86687051 113.99184576 -62.67599429 112.03833755 -67.625 110.25 C-88.31241774 102.76666667 -109.18057599 92.72254017 -120.1796875 72.6171875 C-127.72751137 55.76168446 -127.10602499 38.45161982 -121.0625 21.125 C-114.0213034 4.84725273 -99.51592968 -6.66675354 -83.35546875 -13.0703125 C-54.52280121 -22.48363806 -24.06908071 -18.89586201 0 0 Z " fill="#5DE8EE" transform="translate(213.6875,165.75)"/>
<path d="M0 0 C7.28347312 4.6537125 11.78592826 11.73225663 14 20 C14.33197586 23.8387066 14.37219896 27.67195552 14.4140625 31.5234375 C14.43342865 32.62475006 14.4527948 33.72606262 14.4727478 34.86074829 C14.53234928 38.36542099 14.57885162 41.87012688 14.625 45.375 C14.66319762 47.75652445 14.70225039 50.13803534 14.7421875 52.51953125 C14.83803488 58.34623354 14.92313901 64.17301799 15 70 C15.84498047 69.08283203 16.68996094 68.16566406 17.56054688 67.22070312 C28.24990573 55.68476697 39.33773174 44.5763102 50.5 33.5 C54.03422464 29.99255945 57.56496999 26.48166729 61.09375 22.96875 C62.28139954 21.79354797 62.28139954 21.79354797 63.49304199 20.59460449 C67.68936374 16.41671824 71.70955628 12.15838841 75.55030823 7.65022278 C81.23339526 1.18101335 88.22827719 -3.35958693 96.81640625 -4.3125 C105.58222034 -4.67074528 112.78771209 -2.70414945 119.8125 2.625 C125.1204943 7.54399236 128.37553869 14.83027932 129.23828125 21.97265625 C129.55430702 30.87127656 126.93925425 38.22432872 121 44.875 C119.34111996 46.59089556 117.67381171 48.29866672 116 50 C114.55428359 51.56479925 113.12361761 53.14263531 111.69213867 54.72045898 C106.6625699 60.25110763 101.46549706 65.58180274 96.14697266 70.83374023 C92.92868053 74.02606984 89.93184682 77.32509412 87 80.77734375 C82.2367174 86.07091367 77.0680844 91.00050622 72 96 C77.30487861 103.42683005 83.30906702 110.19655785 89.30957031 117.05957031 C91.8918107 120.02370182 94.44634447 123.01124576 97 126 C101.14825676 130.84944773 105.31702562 135.68047253 109.5 140.5 C111.12546581 142.3749004 112.75059855 144.2500886 114.37548828 146.12548828 C115.46451073 147.38210301 116.55403457 148.63828337 117.64404297 149.89404297 C136.5348682 171.67637867 136.5348682 171.67637867 136.3203125 187.29296875 C135.89386696 192.22829578 134.6095559 195.83018516 132 200 C131.46375 200.886875 130.9275 201.77375 130.375 202.6875 C122.89802583 209.96771169 115.28211375 212.39718546 105.09765625 212.2734375 C91.49476824 211.07267815 82.34519471 198.63025042 74 189 C71.74657544 186.27917035 69.52711903 183.53370508 67.3125 180.78125 C64.8002899 177.75980812 62.17599173 174.87558227 59.5 172 C55.24024514 167.42252861 51.25871391 162.68805636 47.33984375 157.8125 C44.23166816 154.07646256 40.95200465 150.51564324 37.62890625 146.97070312 C35.52799409 144.72016204 33.71409779 142.57114669 32 140 C24.68565642 143.14245872 18.22763881 148.67242187 15 156 C13.81938241 162.82002821 13.84653498 169.63521307 14.04614258 176.53759766 C14.35666376 187.7924267 12.66707778 194.88945815 4.92578125 203.2109375 C-2.04358479 209.68552096 -9.57689833 212.53645296 -19.06640625 212.3046875 C-28.46748985 211.32827669 -35.89481561 207.17175274 -42 200 C-46.51156743 192.90885215 -48.11929248 186.68449979 -48.14044189 178.31587219 C-48.14341302 177.65712024 -48.14638414 176.9983683 -48.1494453 176.31965417 C-48.15809328 174.11974666 -48.15963723 171.91989383 -48.16113281 169.7199707 C-48.1657638 168.13941838 -48.17078884 166.55886718 -48.17617798 164.97831726 C-48.18927812 160.68882292 -48.19574244 156.39934422 -48.20018864 152.109833 C-48.2031236 149.42705784 -48.20722924 146.74428692 -48.21169281 144.0615139 C-48.22536231 135.65949407 -48.23503128 127.25748397 -48.2388947 118.85545379 C-48.24337232 109.17208565 -48.26090873 99.48885888 -48.2898953 89.80553371 C-48.31154831 82.31064356 -48.32160093 74.81579308 -48.32293582 67.32087201 C-48.32398138 62.84926391 -48.32983591 58.3777888 -48.34775543 53.90621376 C-48.36429852 49.69628674 -48.36636154 45.4865918 -48.35761642 41.27664375 C-48.35684934 39.73761623 -48.3611451 38.19857591 -48.37107468 36.65958023 C-48.44581767 24.34586043 -47.55622312 14.39712957 -39 5 C-28.15878233 -5.84121767 -13.35260281 -6.79231928 0 0 Z M78.88671875 19.59765625 C74.60924015 24.52562699 70.00957876 29.09760965 65.375 33.6875 C64.46927246 34.58944092 63.56354492 35.49138184 62.63037109 36.4206543 C59.27078694 39.76605444 55.90668738 43.10688392 52.54223633 46.4473877 C49.23365649 49.732918 45.92897519 53.02233791 42.625 56.3125 C41.76438965 57.16481201 40.9037793 58.01712402 40.01708984 58.89526367 C36.41983512 62.47798761 32.88665507 66.06200354 29.58203125 69.91796875 C25.02728721 75.22099217 20.02467771 80.08249622 15.0625 85 C14.0824469 85.97502386 13.1026276 86.9502828 12.12304688 87.92578125 C9.75097687 90.28616618 7.3765914 92.64416905 5 95 C4.99857498 94.12018463 4.99714996 93.24036926 4.99568176 92.33389282 C4.97778841 84.00740806 4.93598806 75.68145045 4.86790943 67.35521889 C4.83374401 63.07544694 4.80854584 58.796028 4.80444336 54.51611328 C4.80013779 50.37901994 4.77149034 46.24272149 4.72656822 42.10587692 C4.71366483 40.53443421 4.70925995 38.96289601 4.71384621 37.39140701 C4.73396641 28.39673555 4.44577412 20.61089311 -1 13 C-5.86464417 8.25400568 -9.98497147 6.67724966 -16.75 6.5 C-22.4467549 6.59465013 -25.87453694 7.26520392 -30.25390625 10.90625 C-30.83011719 11.5971875 -31.40632813 12.288125 -32 13 C-32.40970221 13.45912277 -32.81940441 13.91824554 -33.24152184 14.39128113 C-38.42316665 21.17830118 -37.70400641 28.8924538 -37.64697266 37.01953125 C-37.6537554 38.64318826 -37.66266221 40.26683756 -37.67352295 41.89047241 C-37.69624508 46.28315098 -37.68750951 50.67523993 -37.67162752 55.06792831 C-37.65893164 59.67396332 -37.67071886 64.27994925 -37.67855835 68.88598633 C-37.6876442 76.61972071 -37.67569501 84.35321602 -37.65185547 92.08691406 C-37.62464619 101.016662 -37.63346111 109.94583905 -37.6609875 118.87557316 C-37.68370797 126.55482639 -37.68686431 134.23390817 -37.67379415 141.91318417 C-37.66601576 146.49427072 -37.66491351 151.07508931 -37.68147659 155.65615845 C-37.695965 159.96399157 -37.68582052 164.27109169 -37.65700531 168.57884598 C-37.65041772 170.15578624 -37.65225225 171.73278864 -37.66331863 173.30970383 C-37.75247638 185.06366966 -37.75247638 185.06366966 -32 195 C-31.4121875 195.6909375 -30.824375 196.381875 -30.21875 197.09375 C-25.05584371 201.31794606 -20.57191171 201.72492969 -13.9921875 201.390625 C-7.71422446 200.57104758 -4.02150428 197.76230769 0 193 C5.65428098 184.74163732 4.46338056 175.22342283 4.2644043 165.61499023 C4.03968394 152.60188958 4.03968394 152.60188958 6.4909668 148.51293945 C8.2359869 146.77895651 10.00165923 145.42416659 12 144 C13.09305294 142.79792171 14.15928021 141.57048291 15.1875 140.3125 C20.13068597 134.56434567 25.60319165 129.31705256 31 124 C39.75198783 132.65474352 48.06421533 141.67911145 55.7578125 151.2890625 C58.23906629 154.28904531 60.84865956 157.1515203 63.5 160 C66.97421336 163.73325033 70.30068926 167.5237138 73.5 171.5 C77.18229164 176.07316865 81.0474996 180.41616589 85.04370117 184.71289062 C87.71189009 187.58233668 90.29178142 190.5007344 92.8125 193.5 C96.3943582 197.53589656 99.22597729 200.63268113 104.83203125 201.375 C109.67153221 201.56595442 113.09839927 201.43470035 117.5 199.3125 C121.65945372 195.46500531 125.51561861 191.4131991 126.3359375 185.6328125 C126.34882813 184.80523437 126.36171875 183.97765625 126.375 183.125 C126.40335938 182.30257812 126.43171875 181.48015625 126.4609375 180.6328125 C125.37297223 174.41850239 120.0679666 169.60202756 116 165 C114.83427511 163.66828406 113.66891872 162.33624547 112.50390625 161.00390625 C111.91754395 160.33504395 111.33118164 159.66618164 110.72705078 158.97705078 C108.11011337 155.98129744 105.5225291 152.96078569 102.9375 149.9375 C102.44701172 149.36451172 101.95652344 148.79152344 101.45117188 148.20117188 C100.46192805 147.04553749 99.47283248 145.88977618 98.48388672 144.73388672 C95.99104476 141.82105954 93.49537234 138.91065939 91 136 C89.9999866 134.83334482 88.99998659 133.66667816 88 132.5 C87.505 131.9225 87.01 131.345 86.5 130.75 C85 129 83.5 127.25 82 125.5 C81.5042749 124.9217749 81.0085498 124.3435498 80.49780273 123.74780273 C79.50464364 122.5888743 78.51196242 121.42953615 77.51977539 120.26977539 C74.91901499 117.23106422 72.30867825 114.20132893 69.68359375 111.18359375 C69.14025391 110.55646484 68.59691406 109.92933594 68.03710938 109.28320312 C67.0011169 108.08782719 65.96223257 106.8949489 64.91992188 105.70507812 C62.2573403 102.62612577 59.97111129 99.5639285 58 96 C63.97672973 89.42983611 69.99083254 82.92861101 76.3125 76.6875 C79.44813129 73.59162315 82.52474713 70.48958422 85.375 67.125 C88.70738806 63.20164657 92.34435069 59.61815304 96 56 C100.88230845 51.1629808 105.58256755 46.27012719 110 41 C110.55300781 40.37480469 111.10601562 39.74960938 111.67578125 39.10546875 C112.21589844 38.49316406 112.75601563 37.88085938 113.3125 37.25 C113.78300781 36.71890625 114.25351562 36.1878125 114.73828125 35.640625 C118.31984644 30.98348142 118.55323041 26.81758436 118.43359375 21.046875 C117.73628299 16.14685342 115.73650006 13.17869944 112 10 C98.65130212 1.62434643 87.99031206 8.85033911 78.88671875 19.59765625 Z " fill="#000202" transform="translate(293,152)"/>
<path d="M0 0 C7.79367085 7.04427942 14.35791885 16.67301215 15.6875 27.2265625 C16.03397254 35.78010331 13.79448795 41.45401842 9.1875 48.5 C3.53035675 53.9111805 -3.19858978 56.9716839 -11.046875 57.37890625 C-20.19216531 56.93246456 -26.85280886 54.1714965 -33.6875 48.25 C-42.11934659 41.5672921 -42.11934659 41.5672921 -52.62109375 40 C-56.19739987 40.4326722 -58.56558818 41.4023379 -61.6875 43.25 C-63.11210282 46.25749484 -62.89372993 47.61544636 -61.875 50.75 C-56.0894255 57.36208515 -45.56628993 59.96974827 -37.5625 63.0625 C-15.28089522 71.86462489 9.1743592 82.49830995 20.3125 105.25 C27.6036491 122.40289564 26.97760464 140.13277783 20.09765625 157.27734375 C11.8973291 173.84438151 -3.81254967 185.58277549 -20.6875 192.25 C-46.14771285 200.78570606 -72.98860667 200.65598849 -97.30200195 188.5715332 C-111.88744965 181.01649431 -124.91082549 170.11018668 -130.40234375 154.17578125 C-132.92878116 144.97822807 -131.85982171 135.74423265 -127.1953125 127.44140625 C-122.8143306 121.07422789 -117.24484734 117.71076522 -109.6875 116.25 C-100.50847561 115.14688283 -92.26350463 116.81023533 -84.80859375 122.4140625 C-77.97734114 128.38047659 -77.97734114 128.38047659 -76.6875 132.25 C-74.97230253 133.27651373 -74.97230253 133.27651373 -72.6875 134.25 C-71.07875 135.24 -71.07875 135.24 -69.4375 136.25 C-61.9453119 140.48816573 -55.02940067 140.81649432 -46.6875 139.25 C-42.56235878 137.65784023 -41.14247006 136.93245508 -38.6875 133.25 C-38.10380557 129.83461856 -38.10380557 129.83461856 -38.6875 126.25 C-42.17984252 122.0657783 -46.15254422 119.63880498 -51 117.3125 C-51.7000415 116.96896484 -52.40008301 116.62542969 -53.12133789 116.27148438 C-57.86687051 113.99184576 -62.67599429 112.03833755 -67.625 110.25 C-88.31241774 102.76666667 -109.18057599 92.72254017 -120.1796875 72.6171875 C-127.72751137 55.76168446 -127.10602499 38.45161982 -121.0625 21.125 C-114.0213034 4.84725273 -99.51592968 -6.66675354 -83.35546875 -13.0703125 C-54.52280121 -22.48363806 -24.06908071 -18.89586201 0 0 Z M-102.6875 12.25 C-113.63760138 25.01154938 -115.6005899 38.48670233 -114.9140625 54.72021484 C-114.13135018 63.45994008 -109.34136199 70.79247184 -103.6875 77.25 C-102.98947266 78.10464844 -102.98947266 78.10464844 -102.27734375 78.9765625 C-91.2328528 91.3486521 -73.54554409 97.0237639 -58.53125 102.87109375 C-34.22735427 112.35598489 -34.22735427 112.35598489 -28.6875 123.25 C-27.85099842 129.8025957 -27.58979859 136.78639812 -31.6875 142.25 C-37.90264386 148.76832161 -45.17082066 150.31610999 -53.9519043 150.65478516 C-66.14130712 150.83316017 -74.63597224 147.61044278 -83.6875 139.25 C-85.55807832 137.20252595 -87.34843305 135.10634552 -89.12890625 132.98046875 C-92.7433951 128.96738965 -96.82244008 127.53839712 -102.0546875 127.01171875 C-107.83130267 126.84075973 -111.17543566 127.27508618 -115.6875 131.25 C-120.06077344 135.97786318 -121.11201363 139.48397333 -120.9453125 145.92578125 C-119.74977218 156.70375835 -113.55599343 164.30369712 -105.6875 171.25 C-91.5199258 182.24878055 -75.01151724 187.83927045 -57.1875 187.5625 C-56.14980469 187.56572266 -55.11210937 187.56894531 -54.04296875 187.57226562 C-34.40625881 187.43776761 -14.89510418 181.22976673 -0.375 167.5625 C10.94977042 155.54586257 14.86242995 142.8197998 14.80273438 126.6706543 C14.41879202 114.24052069 9.05289499 105.21358688 0.54296875 96.421875 C-13.14849479 83.62395961 -31.91974089 76.36516613 -49.29296875 70.12695312 C-58.77824026 66.66372609 -67.94619469 62.73261061 -72.6875 53.25 C-73.27772442 47.04129315 -73.07513941 41.64905032 -69.6875 36.25 C-61.67665428 29.82463416 -53.59917715 29.56396449 -43.6875 30.25 C-36.24077086 31.84736937 -30.3984083 37.33768667 -24.60546875 42.0078125 C-18.95441511 46.35012145 -14.74568722 47.0978303 -7.6875 46.25 C-3.34748953 44.94651563 -0.42009401 42.96427916 2.8125 39.8125 C5.15400342 34.25142939 5.34486972 29.17915041 4.3125 23.25 C2.49968063 19.40042474 0.14435367 16.40581327 -2.6875 13.25 C-3.22761719 12.61449219 -3.76773438 11.97898438 -4.32421875 11.32421875 C-13.73361019 1.04907216 -28.29512584 -5.94880966 -42.2043457 -6.92700195 C-65.36645599 -7.46080874 -85.3216506 -4.70498546 -102.6875 12.25 Z " fill="#010202" transform="translate(213.6875,165.75)"/>
</svg>
